<?xml version="1.0" encoding="UTF-8"?>
<svg xmlns="http://www.w3.org/2000/svg" xmlns:xlink="http://www.w3.org/1999/xlink" width="150px" height="150px" viewBox="0 0 150 150" version="1.1">
<g id="surface1">
<path style=" stroke:none;fill-rule:nonzero;fill:rgb(0%,0%,0%);fill-opacity:1;" d="M 131.964844 122.136719 C 142.605469 109.304688 149.007812 92.847656 149.007812 74.914062 C 149.007812 34.0625 115.769531 0.824219 74.914062 0.824219 C 34.0625 0.824219 0.824219 34.0625 0.824219 74.914062 C 0.824219 92.847656 7.230469 109.304688 17.867188 122.136719 C 18.054688 122.40625 18.273438 122.65625 18.519531 122.890625 C 32.121094 138.855469 52.347656 149.007812 74.914062 149.007812 C 97.480469 149.007812 117.707031 138.855469 131.308594 122.894531 C 131.558594 122.660156 131.777344 122.40625 131.964844 122.136719 Z M 74.914062 10.703125 C 110.324219 10.703125 139.128906 39.507812 139.128906 74.914062 C 139.128906 88.554688 134.839844 101.207031 127.5625 111.617188 C 118.714844 102.675781 107.855469 96.203125 95.980469 92.6875 C 105.070312 86.128906 111.003906 75.453125 111.003906 63.414062 C 111.003906 43.515625 94.8125 27.328125 74.914062 27.328125 C 55.019531 27.328125 38.828125 43.515625 38.828125 63.414062 C 38.828125 75.453125 44.761719 86.128906 53.851562 92.6875 C 41.972656 96.203125 31.113281 102.671875 22.269531 111.617188 C 14.992188 101.207031 10.703125 88.554688 10.703125 74.914062 C 10.703125 39.507812 39.507812 10.703125 74.914062 10.703125 Z M 48.707031 63.417969 C 48.707031 48.96875 60.464844 37.210938 74.914062 37.210938 C 89.367188 37.210938 101.125 48.964844 101.125 63.417969 C 101.125 77.867188 89.367188 89.625 74.914062 89.625 C 60.464844 89.625 48.707031 77.867188 48.707031 63.417969 Z M 74.914062 139.128906 C 56.710938 139.128906 40.265625 131.503906 28.570312 119.292969 C 40.664062 106.671875 57.316406 99.503906 74.914062 99.503906 C 92.515625 99.503906 109.167969 106.671875 121.261719 119.292969 C 109.566406 131.503906 93.121094 139.128906 74.914062 139.128906 Z M 74.914062 139.128906 "/>
</g>
</svg>
